<?xml version="1.0" encoding="UTF-8"?>
<svg width="54px" height="32px" viewBox="0 0 54 32" version="1.1" xmlns="http://www.w3.org/2000/svg" xmlns:xlink="http://www.w3.org/1999/xlink">
    <!-- Generator: Sketch 60.1 (88133) - https://sketch.com -->
    <title>Trig</title>
    <desc>Created with Sketch.</desc>
    <g id="Symbols" stroke="none" stroke-width="1" fill="none" fill-rule="evenodd">
        <g id="Logo" fill="#F5F5F5" fill-rule="nonzero">
            <path d="M8.7858824,25.996 C9.0738824,24.232 12.7458824,16.276 15.4458824,11.092 C17.6778824,6.664 18.7578824,4.972 19.6938824,3.676 C19.6938824,3.424 19.5498824,3.136 19.2258824,2.884 C23.8698824,2.776 26.6418824,2.704 27.6138824,1.876 C27.9018824,1.66 28.4058824,0.508 27.1458824,0.904 C25.3818824,1.696 20.5938824,1.3 16.5978824,1.3 C12.0258824,1.192 4.6098824,1.264 1.6218824,4.612 C-1.3301176,7.924 1.4418824,11.056 3.1338824,11.164 C3.8538824,11.272 4.0338824,10.804 3.4938824,10.408 C2.2698824,10.012 2.8098824,7.708 3.8538824,6.484 C5.0058824,5.044 7.5258824,2.992 16.0218824,2.884 L16.2738824,2.884 C14.9418824,4.864 12.9618824,8.716 11.8818824,10.66 C10.6218824,13.072 6.0138824,22.324 5.7258824,24.052 C5.5098824,25.132 7.2378824,26.104 8.7858824,25.996 Z M26.9489412,23.368 C28.6769412,22.072 33.3929412,15.592 33.9689412,14.26 C33.9689412,13.684 33.2129412,13.54 32.9249412,13.936 C31.8089412,15.484 26.3729412,22.324 25.2569412,22.324 C24.1049412,22.324 27.0569412,15.592 28.7849412,13.288 C29.9009412,11.776 28.6049412,11.092 27.4169412,10.804 C26.9489412,10.696 25.5089412,10.192 25.3289412,10.12 C26.1929412,8.968 27.9209412,6.844 28.1009412,6.16 C28.2809412,5.584 26.6609412,4.9 25.5449412,5.548 C24.4649412,6.088 21.6929412,9.076 22.1609412,10.192 C22.2329412,10.372 22.3769412,10.516 22.5929412,10.66 C20.3969412,13.54 16.9409412,17.932 16.5449412,18.904 C16.1489412,19.984 17.4089412,20.308 17.7689412,20.128 C18.1649412,19.084 22.5929412,13.828 24.5009412,11.236 C25.3289412,11.488 25.9769412,11.704 25.5809412,12.316 C24.8249412,13.648 21.4769412,18.904 21.9449412,21.568 C22.2329412,23.656 25.4009412,24.412 26.9489412,23.368 Z M40.468,7.024 C41.26,6.736 42.124,5.584 41.44,4.9 C40.576,4.216 39.064,4.324 38.092,5.008 C37.048,5.764 37.12,7.06 38.236,7.276 C39.244,7.456 39.64,7.312 40.468,7.024 Z M35.968,22.36 C38.236,21.028 41.332,16.564 42.592,14.26 C42.88,13.612 42.088,12.964 41.512,13.828 C40.324,15.7 35.932,21.028 34.384,21.316 C33.268,21.496 33.7,19.12 35.716,15.232 C36.868,12.928 37.66,12.244 37.768,11.416 C37.876,10.3 35.32,9.22 34.888,9.868 C34.78,10.804 33.52,12.316 32.116,15.16 C30.496,18.508 30.64,20.38 31.396,21.352 C32.188,22.36 34.132,23.404 35.968,22.36 Z M38.2550588,31.432 C41.3870588,31.324 44.2310588,28.516 46.3190588,25.384 C49.0190588,25.06 51.2150588,25.096 51.8990588,25.384 C52.6190588,25.492 52.9430588,24.7 52.2590588,24.412 C51.5030588,24.16 49.6670588,23.944 47.1830588,24.052 C47.9390588,22.756 48.5510588,21.46 49.0910588,20.2 C51.2150588,15.016 52.0430588,14.224 52.2230588,13.828 C52.1150588,13.504 51.8270588,13.216 51.3590588,13 C52.3310588,12.604 53.3030588,11.992 53.3390588,11.308 C53.3390588,10.3 49.4150588,6.196 46.0670588,8.392 C44.5910588,9.364 42.6470588,11.092 40.6310588,14.152 C38.9030588,16.744 38.0030588,19.66 38.4710588,20.92 C38.8310588,21.784 41.3510588,23.08 42.1790588,22.612 C43.7270588,21.856 45.1310588,20.452 46.2830588,18.976 C45.4550588,20.668 44.8430588,22.324 43.5110588,24.376 C42.7910588,24.484 42.0710588,24.628 41.3150588,24.772 C38.6150588,25.348 33.5390588,27.04 32.9270588,28.264 C32.3510588,29.776 35.1950588,31.54 38.2550588,31.432 Z M41.4230588,21.028 C40.7750588,20.92 42.0350588,18.004 43.8350588,15.052 C45.1670588,12.676 49.2350588,8.5 50.9270588,9.904 C51.4310588,10.408 50.4230588,11.74 50.0270588,12.64 C49.4870588,12.64 49.0190588,12.892 48.6950588,13.432 L48.3350588,14.08 C46.6070588,16.816 42.2870588,21.172 41.4230588,21.028 Z M36.5270588,30.064 C35.8070588,30.064 32.7110588,29.38 39.3710588,26.932 C40.3430588,26.536 41.2790588,26.32 42.2870588,26.068 L41.7470588,26.788 C39.7310588,29.2 37.4990588,30.064 36.5270588,30.064 Z" id="Trig"></path>
        </g>
    </g>
</svg>